# xmcd
#
# Track frame offsets:
#	150
#	11834
#	25419
#	39583
#	51560
#	65564
#	80285
#	93349
#	108516
#	121360
#	135279
#
# Disc length: 1938 seconds
# Revision: 0
# Processed by: cddbd v1.5.2PL0 Copyright (c) Steve Scherf et al.
# Submitted via: dBpowerAMP V12.0
#
DISCID=9107900b
DTITLE=Hammertowne - Hammertowne
DYEAR=2013
DGENRE=Country
TTITLE0=I'm Thinking You Don't Love Me Anymore
TTITLE1=Cherokee Maiden
TTITLE2=Movin'
TTITLE3=This Old Martin Box
TTITLE4=Iver Johnson Is My Name
TTITLE5=Why Don't You Tell Me So
TTITLE6=So Long and Goodbye
TTITLE7=Emma
TTITLE8=Too Far Gone
TTITLE9=Talk It All Over With Him
TTITLE10=Sourwood Mountain
EXTD=
EXTT0=
EXTT1=
EXTT2=
EXTT3=
EXTT4=
EXTT5=
EXTT6=
EXTT7=
EXTT8=
EXTT9=
EXTT10=
PLAYORDER=
